<svg xmlns="http://www.w3.org/2000/svg" xmlns:xlink="http://www.w3.org/1999/xlink" id="Layer_1" width="100%" x="0" y="0" enable-background="new 0 0 500 500" version="1.1" viewBox="0 0 500 500" xml:space="preserve"><path fill="#010101" stroke="none" d="M501.000000,168.000000 C501.000000,279.333313 501.000000,390.166595 501.000000,500.999939 C334.333405,500.999939 167.666794,500.999939 1.000149,500.999969 C1.000099,334.333435 1.000099,167.666885 1.000050,1.000238 C167.666519,1.000159 334.333038,1.000159 500.999786,1.000079 C501.000000,56.500000 501.000000,112.000000 501.000000,168.000000 M386.309845,445.824219 C465.605804,390.215088 503.528564,294.060944 482.665253,200.140961 C460.010712,98.157379 375.283356,22.306644 267.248413,14.254180 C223.144806,10.966883 181.069748,19.975060 141.806824,40.419247 C46.046352,90.281654 -3.766385,197.090790 19.315626,302.251495 C41.307438,402.445282 126.632164,478.080383 228.670425,487.136414 C285.739807,492.201385 338.238220,478.583130 386.309845,445.824219 z" opacity="1"/><path fill="#F9F5F3" stroke="none" d="M385.994049,445.994232 C338.238220,478.583130 285.739807,492.201385 228.670425,487.136414 C126.632164,478.080383 41.307438,402.445282 19.315626,302.251495 C-3.766385,197.090790 46.046352,90.281654 141.806824,40.419247 C181.069748,19.975060 223.144806,10.966883 267.248413,14.254180 C375.283356,22.306644 460.010712,98.157379 482.665253,200.140961 C503.528564,294.060944 465.605804,390.215088 385.994049,445.994232 M366.261627,428.122559 C341.629425,445.498718 314.561798,457.254883 285.064606,463.491241 C245.703506,471.813049 207.194931,468.211487 169.643875,454.550018 C139.202957,443.475281 113.588585,424.983459 91.750336,401.165131 C90.286682,399.568756 89.026794,397.549530 87.215378,396.583282 C85.785187,395.820404 83.055412,395.661285 81.998878,396.544800 C80.937576,397.432251 80.809296,400.005432 81.070129,401.718384 C81.268166,403.018860 82.631287,404.206177 83.622681,405.312378 C120.564796,446.533112 166.510971,469.836304 221.657471,475.438690 C251.595428,478.480072 281.007812,476.298309 309.404266,466.656769 C377.612152,443.497894 426.316284,398.557861 454.465668,332.252075 C476.040131,281.433655 479.289398,229.041122 462.926117,176.094757 C431.720337,75.122971 338.136719,13.974471 233.126938,26.331425 C185.152802,31.976751 142.634155,51.538967 107.579292,84.638435 C43.957092,144.711746 18.802013,218.462997 34.225838,305.076508 C36.506874,317.885803 41.571873,330.203766 45.423210,342.726196 C46.520802,346.294952 49.157204,347.595428 52.407578,345.825073 C55.851540,343.949310 54.154659,340.941864 53.157745,338.351074 C41.495892,308.044373 36.815258,276.641937 39.153248,244.314667 C39.887348,234.164261 42.227749,224.130051 44.016453,214.926727 C43.939911,217.085831 44.090031,219.281128 43.751888,221.398453 C40.226078,243.475952 40.602016,265.528107 44.664661,287.454987 C54.298279,339.449432 79.488831,382.339600 120.973526,415.263519 C159.828674,446.100555 204.546738,460.895996 253.895248,460.583252 C292.827667,460.336609 328.947113,449.035889 362.213226,428.731537 C363.425446,427.991608 365.003937,427.851837 366.261627,428.122559 z" opacity="1"/><path fill="#FECB00" stroke="none" d="M366.411743,427.432373 C365.003937,427.851837 363.425446,427.991608 362.213226,428.731537 C328.947113,449.035889 292.827667,460.336609 253.895248,460.583252 C204.546738,460.895996 159.828674,446.100555 120.973526,415.263519 C79.488831,382.339600 54.298279,339.449432 44.664661,287.454987 C40.602016,265.528107 40.226078,243.475952 43.751888,221.398453 C44.090031,219.281128 43.939911,217.085831 44.001232,214.096024 C45.792206,205.480957 47.028927,197.510345 49.503216,189.944473 C60.192078,157.260071 77.494972,128.391052 101.159843,103.458298 C107.369225,96.916237 114.463341,91.213936 121.499832,85.094292 C122.214584,84.676010 122.580666,84.289429 122.965454,83.941269 C122.984161,83.979698 122.906425,83.944176 123.297501,84.065971 C123.778755,83.766640 123.868942,83.345512 123.979050,82.960976 C123.998970,82.997566 123.942513,82.936340 124.238953,83.251564 C125.655548,82.354134 126.775711,81.141487 127.915924,79.925552 C127.935982,79.922256 127.948395,79.883553 128.173676,80.243973 C129.978729,79.694336 131.613113,78.866714 133.130447,77.862289 C186.208420,42.726799 244.023590,31.749939 305.223999,48.850651 C379.267670,69.540054 428.414032,117.810516 451.781738,191.352936 C460.195831,217.833725 462.414093,245.145126 459.142120,272.824921 C458.341705,279.596161 457.706970,286.386963 457.034302,293.576843 C457.091125,294.150360 457.157745,294.327271 457.121460,294.479706 C452.006287,315.945679 443.879120,336.061951 432.776306,355.272766 C422.836243,372.471710 411.133789,388.119598 397.267639,402.086334 C389.583832,409.825806 380.485748,416.161224 371.684631,423.121826 C371.250916,423.438416 371.157715,423.762756 371.032257,424.044128 C371.000000,424.001221 371.064270,424.088562 370.779480,423.801575 C369.035675,424.750061 367.576630,425.985504 366.219391,427.234497 C366.321167,427.248047 366.411743,427.432373 366.411743,427.432373 M265.273560,187.897247 C266.020813,186.632629 267.414978,185.362350 267.403961,184.104370 C267.354950,178.498795 266.602051,172.892471 266.680969,167.294556 C266.765228,161.316589 267.667969,155.353683 267.877136,149.372452 C267.985168,146.282898 267.065552,143.195312 263.482239,142.378418 C260.162689,141.621674 256.738007,141.326141 252.807678,140.746033 C252.807678,143.924179 252.807678,146.285019 252.807678,149.733597 C246.647079,141.609772 239.558517,141.775482 232.041626,144.857193 C224.598541,147.908615 220.508453,154.252151 216.901871,161.203369 C216.361725,160.222916 216.347229,159.526794 216.363983,158.831451 C216.551712,151.038025 216.837296,143.245438 216.899094,135.451080 C216.933655,131.094254 214.370010,128.764099 210.168503,128.306656 C207.282990,127.992485 204.368851,127.941315 201.432800,127.770576 C201.432800,139.918839 201.432800,151.292389 201.432800,162.886902 C193.942383,163.437164 187.554291,163.906464 181.054886,164.383926 C181.054886,161.866226 181.054214,160.066177 181.055023,158.266144 C181.057938,151.793365 181.095917,145.320328 181.050369,138.847900 C181.026627,135.473801 179.038254,133.635132 175.889130,133.117355 C172.686401,132.590759 169.441803,132.318863 166.051270,131.915894 C166.051270,142.882782 166.051270,153.097885 166.051270,163.613831 C162.912201,163.377594 160.678375,163.209488 157.335632,162.957916 C158.564346,166.021317 158.861145,169.449753 160.446671,170.217834 C165.509064,172.670242 164.102448,176.578217 163.813812,180.388550 C163.625168,182.878693 163.209579,185.360092 163.161224,187.850540 C163.078445,192.112640 163.426239,196.633743 167.594803,198.818970 C171.823700,201.035843 176.272110,200.026749 179.196335,198.193481 C179.196335,190.348190 179.083954,183.406693 179.290329,176.474655 C179.332047,175.073303 180.370270,172.683197 181.305344,172.492081 C187.385391,171.249451 193.563828,170.488251 199.836426,169.550583 C199.477844,175.000687 198.533875,179.561905 199.088974,183.932724 C199.553192,187.588165 200.819473,192.369873 203.445129,194.221283 C206.968185,196.705444 211.984177,195.713043 215.294174,193.490356 C215.294174,185.735901 215.294174,178.691116 215.294174,171.646332 C217.675430,180.672699 219.492203,190.532776 231.136551,191.792252 C243.177841,193.094666 245.447662,182.180786 250.363037,174.136246 C252.310593,188.192520 254.475388,190.230499 265.273560,187.897247 M258.020355,362.260986 C254.179428,349.443115 262.494354,328.560852 273.144684,325.866455 C273.263458,327.868500 273.539398,329.746948 273.455414,331.609161 C273.170410,337.927002 272.106476,344.284058 272.538086,350.543518 C273.298859,361.575836 279.843842,364.637451 289.319031,359.476868 C288.872925,354.681549 288.015320,350.088104 288.124786,345.517761 C288.275940,339.204529 289.336517,332.918121 289.663605,326.602386 C289.899841,322.040863 291.138794,316.477905 286.371460,313.819153 C281.575836,311.144623 277.040344,314.377502 273.173065,317.325226 C267.532166,321.624908 262.101929,326.201019 256.581909,330.659302 C257.103607,331.265839 257.625275,331.872375 258.146973,332.478912 C258.146973,330.737885 258.124298,328.996490 258.151093,327.255859 C258.248230,320.943085 258.906494,314.581085 258.338989,308.329742 C257.532135,299.442505 252.049484,296.479889 242.944107,299.298767 C242.944107,310.544891 243.176147,321.835144 242.858704,333.109955 C242.662354,340.083557 241.063065,347.045410 241.207352,353.989410 C241.281906,357.578705 242.815842,362.435669 245.428177,364.356628 C248.956818,366.951355 254.009979,366.077850 258.020355,362.260986 M323.856384,208.881638 C323.677979,216.028290 323.711334,223.188126 323.267731,230.318283 C322.710327,239.277649 321.285248,248.209930 321.232727,257.159760 C321.213409,260.450806 323.192383,264.972565 325.768829,266.769928 C329.493622,269.368408 334.250519,267.923462 337.343506,265.907990 C337.343506,258.305939 337.343506,251.602661 337.343506,243.758987 C338.694031,246.507446 339.321381,248.269226 340.338867,249.765732 C343.674438,254.671677 346.529602,260.128052 350.728729,264.167786 C356.257019,269.486359 367.598114,265.711365 369.719543,258.448212 C360.395264,256.153900 353.368805,250.888229 348.809509,242.612015 C352.923035,239.452255 356.854004,236.726120 360.431213,233.595779 C363.510254,230.901382 363.797058,227.390961 361.092163,224.281967 C358.791779,221.637955 355.971893,219.445923 352.839874,216.553375 C349.248322,225.430130 345.327576,232.613647 337.690857,238.093735 C337.867950,235.261017 338.111084,233.162521 338.110474,231.064087 C338.108093,223.111130 338.224121,215.148148 337.819580,207.213181 C337.731659,205.488602 335.990112,202.888489 334.457458,202.389542 C330.838074,201.211243 326.885986,201.054947 322.595490,200.414780 C323.098969,203.688889 323.427094,205.822525 323.856384,208.881638 M299.801025,355.949677 C310.202118,361.095001 313.927826,359.045319 324.392487,342.553101 C326.205872,346.279816 327.174500,351.194672 330.163422,353.670593 C333.873413,356.743805 338.940948,355.178375 341.651764,353.524231 C341.651764,345.973175 341.484833,339.577759 341.707489,333.195984 C341.869598,328.550812 342.781433,323.931854 342.945007,319.286652 C343.299042,309.232178 338.121033,305.422943 327.643646,308.233704 C327.643646,310.438080 327.643646,312.766937 327.643646,315.904327 C323.706238,310.747650 319.394958,308.373291 313.686005,309.261475 C302.601898,310.985931 295.783417,317.736420 292.667328,328.095398 C289.594910,338.309143 290.778625,347.864288 299.801025,355.949677 M194.591141,324.826630 C194.323090,325.601990 193.784088,326.394043 193.830750,327.149963 C194.145325,332.246765 194.986053,337.345245 194.868103,342.424866 C194.752991,347.383179 193.380859,352.304047 193.135956,357.269714 C192.801697,364.047546 196.065643,368.827881 201.501770,370.553192 C207.354050,372.410583 211.828293,370.665344 215.857117,364.506195 C218.067993,361.126251 219.810867,357.440186 222.101501,353.280701 C222.801758,357.018646 223.137482,360.099274 223.990219,363.029419 C225.006119,366.520325 227.795227,368.118469 231.286438,367.822632 C234.263687,367.570374 237.189880,366.715759 240.138657,366.127625 C239.589767,365.790680 239.040863,365.453735 238.491974,365.116760 C238.491974,359.050232 238.302963,352.976135 238.545517,346.919312 C238.784851,340.942810 239.905457,334.970856 239.732605,329.023254 C239.660629,326.546600 237.817154,323.061401 235.751007,321.955078 C232.767059,320.357361 228.847412,320.507141 225.207809,319.891144 C224.758347,325.838562 225.109039,331.135468 223.808090,335.989746 C222.036087,342.601685 219.352325,349.050903 216.276505,355.176697 C215.467682,356.787567 211.772797,356.949341 209.403275,357.776611 C209.012527,355.611786 208.125504,353.398193 208.332642,351.292145 C208.787186,346.670715 210.011002,342.128265 210.535782,337.509796 C211.878174,325.696136 206.586456,321.249634 194.591141,324.826630 M186.331024,282.082581 C190.841415,285.782532 195.920975,285.779938 201.090988,282.066376 C196.283157,268.623779 200.354782,257.301758 209.639526,247.373962 C210.724442,246.213913 212.777939,245.959686 214.382416,245.285538 C214.802216,246.953903 215.676041,248.654160 215.561462,250.284973 C215.119125,256.580353 213.934509,262.845306 213.813431,269.136749 C213.590317,280.730042 220.719925,284.558563 229.885696,279.170166 C229.885696,272.216003 229.645889,265.819611 229.953506,259.449646 C230.257629,253.152222 231.564468,246.885025 231.613831,240.598160 C231.673798,232.960052 227.148682,229.976501 220.519470,233.746292 C215.001358,236.884216 210.381241,241.627411 205.463135,245.777802 C204.061737,246.960434 203.008850,248.556046 201.347366,250.482666 C200.492279,238.672897 195.892822,235.174622 186.808121,237.807144 C186.011826,246.797150 184.880463,255.542374 184.587845,264.315552 C184.398621,269.989044 185.436829,275.703430 186.331024,282.082581 M164.759415,264.983246 C162.898727,268.285278 161.453003,271.950012 159.010956,274.743866 C157.692169,276.252625 154.670105,276.272614 152.416489,276.964294 C151.995667,274.971741 151.051376,272.923798 151.255341,270.997406 C151.796997,265.881836 153.147293,260.845245 153.580475,255.726852 C153.962296,251.215408 153.779282,245.713806 149.270203,243.819885 C145.632828,242.292130 140.842087,243.510376 137.634277,243.510376 C137.634277,251.382385 137.801193,257.925385 137.566666,264.453949 C137.442032,267.923126 136.430634,271.352051 136.154312,274.825806 C135.549377,282.430756 138.678680,287.997437 144.298019,289.777710 C150.626312,291.782654 155.258453,289.713318 159.598602,282.661530 C161.509613,279.556610 163.074463,276.238617 165.103394,272.443237 C167.794891,287.603851 172.439301,290.623260 181.735748,285.293243 C181.735748,277.974854 181.581497,271.264893 181.786636,264.565948 C181.939163,259.585175 182.809799,254.623627 182.908173,249.644562 C183.049347,242.498810 181.155212,240.590042 173.910385,239.883316 C171.975037,239.694534 170.005661,239.854782 168.796860,239.854782 C167.476471,248.231216 166.217010,256.221222 164.759415,264.983246 M309.877869,222.753204 C308.257477,222.753204 306.637115,222.753204 305.137817,222.753204 C304.742706,228.110764 305.089386,233.254349 303.840393,237.975830 C302.087921,244.600433 299.503510,251.085052 296.483826,257.241516 C295.664581,258.911743 291.997742,259.185242 289.637878,260.099792 C289.183716,257.819550 288.185181,255.490509 288.384186,253.268753 C288.857361,247.985474 290.675110,242.718918 290.447327,237.511322 C290.282654,233.746109 288.688965,228.817017 285.956207,226.699463 C282.504028,224.024460 277.451141,225.228409 274.471191,227.159149 C274.471191,234.764313 274.636414,241.472656 274.410309,248.167770 C274.270599,252.305618 273.192963,256.419586 273.147858,260.550995 C273.080566,266.708466 276.511414,271.361664 281.521240,272.832062 C287.194550,274.497192 291.575378,272.989624 295.291962,267.513245 C297.751434,263.889252 299.683105,259.907013 301.559448,256.599274 C303.125061,260.539764 304.139923,265.097351 306.599976,268.655823 C308.590149,271.534607 315.416199,270.418732 318.999146,268.075928 C318.756256,261.782135 318.234619,256.035187 318.398438,250.307800 C318.559753,244.669342 319.689056,239.061081 319.901428,233.421036 C320.200073,225.490067 318.653656,223.938660 309.877869,222.753204 M365.150146,314.705597 C364.274292,315.691406 363.398407,316.677246 362.150360,318.081970 C361.327393,306.263794 358.485687,303.998962 346.760040,305.500977 C346.760040,309.872009 346.992096,314.337677 346.708008,318.770325 C346.229706,326.233215 344.868317,333.684723 344.997131,341.121674 C345.058685,344.675690 346.744659,349.484436 349.382568,351.396179 C352.926422,353.964539 357.905823,352.823700 361.897614,350.244598 C357.910522,336.673981 360.700806,324.415833 369.902863,315.595276 C371.201996,314.349976 373.269745,313.906494 374.981689,313.091888 C375.398987,314.884644 376.273468,316.709442 376.150330,318.464294 C375.731689,324.431274 374.680573,330.361298 374.418610,336.329437 C374.229065,340.647064 374.575378,345.494354 378.879669,347.820160 C383.232178,350.172028 387.774841,348.963074 390.517761,347.218048 C390.517761,339.977264 390.276367,333.895020 390.584290,327.840729 C390.904785,321.539276 392.131134,315.273895 392.282715,308.976410 C392.487427,300.472351 387.791931,297.446655 380.490875,301.853363 C375.041534,305.142395 370.539490,310.000916 365.150146,314.705597 M180.912170,317.523529 C184.307266,314.471252 184.978241,310.977509 183.118393,307.355530 C172.402191,308.326111 162.136429,309.115662 151.907333,310.239136 C146.469238,310.836395 140.931595,311.477448 135.732880,313.062836 C129.274200,315.032379 128.127975,320.055908 131.805878,324.858978 C138.213531,323.291412 144.356567,321.788574 151.411087,320.062744 C151.411087,325.021088 151.625351,328.816956 151.370789,332.581116 C150.618057,343.711182 149.278168,354.820496 149.050507,365.955963 C148.978790,369.464142 150.740875,374.365875 153.368393,376.240540 C156.899277,378.759827 161.901123,377.655457 166.059296,374.986053 C162.433319,364.269897 164.878006,353.708923 165.474106,343.125183 C165.906555,335.446686 168.978088,327.355804 163.320831,320.949799 C168.886505,319.959290 174.562897,318.949066 180.912170,317.523529 M288.912354,125.386185 C285.390259,124.890465 281.868195,124.394737 278.259979,123.886887 C278.742828,129.671722 279.153137,134.587418 279.551544,139.360382 C269.674103,142.433243 269.111450,143.067505 271.075714,148.434753 C273.611633,148.198349 276.147583,147.961929 279.087189,147.687881 C278.440460,152.274704 277.624847,156.191971 277.393463,160.143448 C277.055878,165.907501 276.410156,171.803116 277.238953,177.445343 C278.132477,183.528091 283.855988,187.176773 290.056488,187.136993 C296.886383,187.093170 302.135651,183.624695 303.799133,178.056473 C294.988739,178.499847 292.380096,177.450012 292.195526,171.373199 C291.941925,163.023468 292.908722,154.636658 293.325348,146.779968 C297.056305,145.835602 299.760010,145.701004 301.756500,144.443588 C302.991364,143.665848 303.150665,141.180389 303.792816,139.461548 C302.430359,139.008423 301.078247,138.228622 299.702850,138.185211 C298.001221,138.131546 296.280304,138.688995 294.730499,138.954514 C292.856445,134.181274 295.355804,128.383621 288.912354,125.386185 M256.079773,220.657486 C252.193085,216.046371 246.986389,217.061737 241.891602,216.841400 C242.312439,222.355286 242.695389,227.372849 243.069733,232.277481 C233.945206,234.085083 232.865173,235.282181 234.591492,241.063492 C236.984863,240.733337 239.391541,240.401337 242.375916,239.989655 C242.031143,243.207764 241.677521,245.960007 241.452286,248.722702 C240.939774,255.008911 239.916489,261.323364 240.168503,267.583374 C240.448502,274.538574 246.412308,279.593689 253.099396,279.781555 C259.887695,279.972198 266.048676,275.806946 267.197815,270.249969 C258.491455,271.929169 255.212250,269.470825 255.168839,260.327026 C255.143753,255.039291 256.443665,249.756027 256.620636,244.453171 C256.760223,240.270416 258.174744,238.348007 262.545959,237.849045 C267.528381,237.280304 268.240265,235.279022 266.177338,230.209152 C263.521393,230.576797 260.831757,230.949112 258.185883,231.315369 C257.481201,227.617889 256.891846,224.525604 256.079773,220.657486 M311.171844,155.659027 C310.830322,160.970963 309.812988,166.358658 310.396851,171.566849 C310.755920,174.770050 312.847504,179.053268 315.442749,180.422638 C319.026062,182.313324 323.782166,181.732788 326.483307,179.490051 C326.194672,173.159088 325.642975,167.889740 325.794403,162.640701 C325.981323,156.162155 327.034821,149.707397 327.194061,143.229584 C327.358093,136.556961 325.446564,134.710007 318.756165,134.021515 C316.690308,133.808899 314.584045,133.988464 312.948700,133.988464 C312.366821,141.232147 311.823700,147.993652 311.171844,155.659027 M322.535828,126.227837 C326.319183,124.663147 328.553040,121.704124 328.069061,117.761734 C327.813232,115.678032 326.130035,113.177994 324.343414,112.002655 C321.090576,109.862785 316.900146,109.695793 314.443451,112.964523 C312.707916,115.273727 311.397736,119.172119 312.103241,121.759651 C313.265991,126.023979 317.435974,127.177345 322.535828,126.227837 z" opacity="1"/><path fill="#11071F" stroke="none" d="M372.025146,423.129517 C380.485748,416.161224 389.583832,409.825806 397.267639,402.086334 C411.133789,388.119598 422.836243,372.471710 432.776306,355.272766 C443.879120,336.061951 452.006287,315.945679 457.121460,294.479706 C457.157745,294.327271 457.091125,294.150360 457.388000,293.400330 C458.069702,291.714264 458.552765,290.636749 458.785126,289.507660 C465.580109,256.485962 465.947540,223.666153 458.055115,190.590073 C437.068604,102.638916 360.001526,38.193359 269.659882,33.962948 C224.413437,31.844194 182.843262,43.740505 144.578522,67.590836 C138.746780,71.225746 133.477707,75.763428 127.948395,79.883553 C127.948395,79.883553 127.935982,79.922256 127.585373,79.874397 C126.137352,80.863136 125.039932,81.899742 123.942513,82.936340 C123.942513,82.936340 123.998970,82.997566 123.674530,82.975342 C123.202202,83.283478 123.054321,83.613831 122.906433,83.944176 C122.906425,83.944176 122.984161,83.979698 122.628967,83.885818 C121.899567,84.236626 121.525360,84.681313 121.151161,85.125992 C114.463341,91.213936 107.369225,96.916237 101.159843,103.458298 C77.494972,128.391052 60.192078,157.260071 49.503216,189.944473 C47.028927,197.510345 45.792206,205.480957 43.909470,213.653992 C42.227749,224.130051 39.887348,234.164261 39.153248,244.314667 C36.815258,276.641937 41.495892,308.044373 53.157745,338.351074 C54.154659,340.941864 55.851540,343.949310 52.407578,345.825073 C49.157204,347.595428 46.520802,346.294952 45.423210,342.726196 C41.571873,330.203766 36.506874,317.885803 34.225838,305.076508 C18.802013,218.462997 43.957092,144.711746 107.579292,84.638435 C142.634155,51.538967 185.152802,31.976751 233.126938,26.331425 C338.136719,13.974471 431.720337,75.122971 462.926117,176.094757 C479.289398,229.041122 476.040131,281.433655 454.465668,332.252075 C426.316284,398.557861 377.612152,443.497894 309.404266,466.656769 C281.007812,476.298309 251.595428,478.480072 221.657471,475.438690 C166.510971,469.836304 120.564796,446.533112 83.622681,405.312378 C82.631287,404.206177 81.268166,403.018860 81.070129,401.718384 C80.809296,400.005432 80.937576,397.432251 81.998878,396.544800 C83.055412,395.661285 85.785187,395.820404 87.215378,396.583282 C89.026794,397.549530 90.286682,399.568756 91.750336,401.165131 C113.588585,424.983459 139.202957,443.475281 169.643875,454.550018 C207.194931,468.211487 245.703506,471.813049 285.064606,463.491241 C314.561798,457.254883 341.629425,445.498718 366.336670,427.777466 C366.411743,427.432373 366.321167,427.248047 366.511780,427.504303 C368.156372,426.536560 369.610321,425.312561 371.064270,424.088562 C371.064270,424.088562 371.000000,424.001221 371.307312,424.067352 C371.751465,423.798828 371.888306,423.464172 372.025146,423.129517 z" opacity="1"/><path fill="#100418" stroke="none" d="M264.876678,187.984344 C254.475388,190.230499 252.310593,188.192520 250.363037,174.136246 C245.447662,182.180786 243.177841,193.094666 231.136551,191.792252 C219.492203,190.532776 217.675430,180.672699 215.294174,171.646332 C215.294174,178.691116 215.294174,185.735901 215.294174,193.490356 C211.984177,195.713043 206.968185,196.705444 203.445129,194.221283 C200.819473,192.369873 199.553192,187.588165 199.088974,183.932724 C198.533875,179.561905 199.477844,175.000687 199.836426,169.550583 C193.563828,170.488251 187.385391,171.249451 181.305344,172.492081 C180.370270,172.683197 179.332047,175.073303 179.290329,176.474655 C179.083954,183.406693 179.196335,190.348190 179.196335,198.193481 C176.272110,200.026749 171.823700,201.035843 167.594803,198.818970 C163.426239,196.633743 163.078445,192.112640 163.161224,187.850540 C163.209579,185.360092 163.625168,182.878693 163.813812,180.388550 C164.102448,176.578217 165.509064,172.670242 160.446671,170.217834 C158.861145,169.449753 158.564346,166.021317 157.335632,162.957916 C160.678375,163.209488 162.912201,163.377594 166.051270,163.613831 C166.051270,153.097885 166.051270,142.882782 166.051270,131.915894 C169.441803,132.318863 172.686401,132.590759 175.889130,133.117355 C179.038254,133.635132 181.026627,135.473801 181.050369,138.847900 C181.095917,145.320328 181.057938,151.793365 181.055023,158.266144 C181.054214,160.066177 181.054886,161.866226 181.054886,164.383926 C187.554291,163.906464 193.942383,163.437164 201.432800,162.886902 C201.432800,151.292389 201.432800,139.918839 201.432800,127.770576 C204.368851,127.941315 207.282990,127.992485 210.168503,128.306656 C214.370010,128.764099 216.933655,131.094254 216.899094,135.451080 C216.837296,143.245438 216.551712,151.038025 216.363983,158.831451 C216.347229,159.526794 216.361725,160.222916 216.901871,161.203369 C220.508453,154.252151 224.598541,147.908615 232.041626,144.857193 C239.558517,141.775482 246.647079,141.609772 252.807678,149.733597 C252.807678,146.285019 252.807678,143.924179 252.807678,140.746033 C256.738007,141.326141 260.162689,141.621674 263.482239,142.378418 C267.065552,143.195312 267.985168,146.282898 267.877136,149.372452 C267.667969,155.353683 266.765228,161.316589 266.680969,167.294556 C266.602051,172.892471 267.354950,178.498795 267.403961,184.104370 C267.414978,185.362350 266.020813,186.632629 264.876678,187.984344 M250.249512,162.732727 C250.605820,161.286606 251.041656,159.854752 251.304291,158.391815 C252.297028,152.861862 249.560501,149.481323 244.017960,150.111984 C241.390305,150.410965 238.462189,151.533798 236.461746,153.221573 C230.786499,158.009735 229.023499,169.176712 232.401672,175.792206 C235.110596,181.097122 240.569321,181.879913 243.787567,176.907639 C246.442795,172.805222 248.011597,167.999588 250.249512,162.732727 z" opacity="1"/><path fill="#F9F4EF" stroke="none" d="M128.173676,80.243973 C133.477707,75.763428 138.746780,71.225746 144.578522,67.590836 C182.843262,43.740505 224.413437,31.844194 269.659882,33.962948 C360.001526,38.193359 437.068604,102.638916 458.055115,190.590073 C465.947540,223.666153 465.580109,256.485962 458.785126,289.507660 C458.552765,290.636749 458.069702,291.714264 457.349762,292.992310 C457.706970,286.386963 458.341705,279.596161 459.142120,272.824921 C462.414093,245.145126 460.195831,217.833725 451.781738,191.352936 C428.414032,117.810516 379.267670,69.540054 305.223999,48.850651 C244.023590,31.749939 186.208420,42.726799 133.130447,77.862289 C131.613113,78.866714 129.978729,79.694336 128.173676,80.243973 z" opacity="1"/><path fill="#110518" stroke="none" d="M257.992249,362.679626 C254.009979,366.077850 248.956818,366.951355 245.428177,364.356628 C242.815842,362.435669 241.281906,357.578705 241.207352,353.989410 C241.063065,347.045410 242.662354,340.083557 242.858704,333.109955 C243.176147,321.835144 242.944107,310.544891 242.944107,299.298767 C252.049484,296.479889 257.532135,299.442505 258.338989,308.329742 C258.906494,314.581085 258.248230,320.943085 258.151093,327.255859 C258.124298,328.996490 258.146973,330.737885 258.146973,332.478912 C257.625275,331.872375 257.103607,331.265839 256.581909,330.659302 C262.101929,326.201019 267.532166,321.624908 273.173065,317.325226 C277.040344,314.377502 281.575836,311.144623 286.371460,313.819153 C291.138794,316.477905 289.899841,322.040863 289.663605,326.602386 C289.336517,332.918121 288.275940,339.204529 288.124786,345.517761 C288.015320,350.088104 288.872925,354.681549 289.319031,359.476868 C279.843842,364.637451 273.298859,361.575836 272.538086,350.543518 C272.106476,344.284058 273.170410,337.927002 273.455414,331.609161 C273.539398,329.746948 273.263458,327.868500 273.144684,325.866455 C262.494354,328.560852 254.179428,349.443115 257.992249,362.679626 z" opacity="1"/><path fill="#110518" stroke="none" d="M323.805786,208.418915 C323.427094,205.822525 323.098969,203.688889 322.595490,200.414780 C326.885986,201.054947 330.838074,201.211243 334.457458,202.389542 C335.990112,202.888489 337.731659,205.488602 337.819580,207.213181 C338.224121,215.148148 338.108093,223.111130 338.110474,231.064087 C338.111084,233.162521 337.867950,235.261017 337.690857,238.093735 C345.327576,232.613647 349.248322,225.430130 352.839874,216.553375 C355.971893,219.445923 358.791779,221.637955 361.092163,224.281967 C363.797058,227.390961 363.510254,230.901382 360.431213,233.595779 C356.854004,236.726120 352.923035,239.452255 348.809509,242.612015 C353.368805,250.888229 360.395264,256.153900 369.719543,258.448212 C367.598114,265.711365 356.257019,269.486359 350.728729,264.167786 C346.529602,260.128052 343.674438,254.671677 340.338867,249.765732 C339.321381,248.269226 338.694031,246.507446 337.343506,243.758987 C337.343506,251.602661 337.343506,258.305939 337.343506,265.907990 C334.250519,267.923462 329.493622,269.368408 325.768829,266.769928 C323.192383,264.972565 321.213409,260.450806 321.232727,257.159760 C321.285248,248.209930 322.710327,239.277649 323.267731,230.318283 C323.711334,223.188126 323.677979,216.028290 323.805786,208.418915 z" opacity="1"/><path fill="#110518" stroke="none" d="M299.487030,355.740082 C290.778625,347.864288 289.594910,338.309143 292.667328,328.095398 C295.783417,317.736420 302.601898,310.985931 313.686005,309.261475 C319.394958,308.373291 323.706238,310.747650 327.643646,315.904327 C327.643646,312.766937 327.643646,310.438080 327.643646,308.233704 C338.121033,305.422943 343.299042,309.232178 342.945007,319.286652 C342.781433,323.931854 341.869598,328.550812 341.707489,333.195984 C341.484833,339.577759 341.651764,345.973175 341.651764,353.524231 C338.940948,355.178375 333.873413,356.743805 330.163422,353.670593 C327.174500,351.194672 326.205872,346.279816 324.392487,342.553101 C313.927826,359.045319 310.202118,361.095001 299.487030,355.740082 M305.954712,330.885986 C306.322693,334.312683 306.105682,337.955353 307.263031,341.090668 C308.042999,343.203613 310.605438,345.707886 312.660889,346.001007 C314.654907,346.285400 318.078430,344.518188 319.023407,342.693481 C321.880524,337.176605 324.305664,331.328583 326.023163,325.357635 C327.927460,318.737122 323.550903,314.786407 316.842896,316.511169 C309.906036,318.294830 307.456268,323.772186 305.954712,330.885986 z" opacity="1"/><path fill="#110518" stroke="none" d="M194.935425,324.653381 C206.586456,321.249634 211.878174,325.696136 210.535782,337.509796 C210.011002,342.128265 208.787186,346.670715 208.332642,351.292145 C208.125504,353.398193 209.012527,355.611786 209.403259,357.776611 C211.772797,356.949341 215.467682,356.787567 216.276505,355.176697 C219.352325,349.050903 222.036087,342.601685 223.808090,335.989746 C225.109039,331.135468 224.758347,325.838562 225.207809,319.891144 C228.847412,320.507141 232.767059,320.357361 235.751007,321.955078 C237.817154,323.061401 239.660629,326.546600 239.732605,329.023254 C239.905457,334.970856 238.784851,340.942810 238.545517,346.919312 C238.302963,352.976135 238.491974,359.050232 238.491974,365.116760 C239.040863,365.453735 239.589767,365.790680 240.138657,366.127625 C237.189880,366.715759 234.263687,367.570374 231.286438,367.822632 C227.795227,368.118469 225.006119,366.520325 223.990219,363.029419 C223.137482,360.099274 222.801758,357.018646 222.101501,353.280701 C219.810867,357.440186 218.067993,361.126251 215.857117,364.506195 C211.828293,370.665344 207.354050,372.410583 201.501770,370.553192 C196.065643,368.827881 192.801697,364.047546 193.135956,357.269714 C193.380859,352.304047 194.752991,347.383179 194.868103,342.424866 C194.986053,337.345245 194.145325,332.246765 193.830750,327.149963 C193.784088,326.394043 194.323090,325.601990 194.935425,324.653381 z" opacity="1"/><path fill="#100418" stroke="none" d="M186.128021,281.741028 C185.436829,275.703430 184.398621,269.989044 184.587845,264.315552 C184.880463,255.542374 186.011826,246.797150 186.808121,237.807144 C195.892822,235.174622 200.492279,238.672897 201.347366,250.482666 C203.008850,248.556046 204.061737,246.960434 205.463135,245.777802 C210.381241,241.627411 215.001358,236.884216 220.519470,233.746292 C227.148682,229.976501 231.673798,232.960052 231.613831,240.598160 C231.564468,246.885025 230.257629,253.152222 229.953506,259.449646 C229.645889,265.819611 229.885696,272.216003 229.885696,279.170166 C220.719925,284.558563 213.590317,280.730042 213.813431,269.136749 C213.934509,262.845306 215.119125,256.580353 215.561462,250.284973 C215.676041,248.654160 214.802216,246.953903 214.382416,245.285522 C212.777939,245.959686 210.724442,246.213913 209.639526,247.373962 C200.354782,257.301758 196.283157,268.623779 201.090988,282.066376 C195.920975,285.779938 190.841415,285.782532 186.128021,281.741028 z" opacity="1"/><path fill="#100418" stroke="none" d="M164.858475,264.597229 C166.217010,256.221222 167.476471,248.231216 168.796860,239.854782 C170.005661,239.854782 171.975037,239.694534 173.910385,239.883316 C181.155212,240.590042 183.049347,242.498810 182.908173,249.644562 C182.809799,254.623627 181.939163,259.585175 181.786636,264.565948 C181.581497,271.264893 181.735748,277.974854 181.735748,285.293243 C172.439301,290.623260 167.794891,287.603851 165.103394,272.443237 C163.074463,276.238617 161.509613,279.556610 159.598602,282.661530 C155.258453,289.713318 150.626312,291.782654 144.298019,289.777710 C138.678680,287.997437 135.549377,282.430756 136.154312,274.825806 C136.430634,271.352051 137.442032,267.923126 137.566666,264.453949 C137.801193,257.925385 137.634277,251.382385 137.634277,243.510376 C140.842087,243.510376 145.632828,242.292130 149.270203,243.819885 C153.779282,245.713806 153.962296,251.215408 153.580475,255.726852 C153.147293,260.845245 151.796997,265.881836 151.255341,270.997406 C151.051376,272.923798 151.995667,274.971741 152.416489,276.964294 C154.670105,276.272614 157.692169,276.252625 159.010956,274.743866 C161.453003,271.950012 162.898727,268.285278 164.858475,264.597229 z" opacity="1"/><path fill="#100418" stroke="none" d="M310.286194,222.793869 C318.653656,223.938660 320.200073,225.490067 319.901428,233.421036 C319.689056,239.061081 318.559753,244.669342 318.398438,250.307800 C318.234619,256.035187 318.756256,261.782135 318.999146,268.075928 C315.416199,270.418732 308.590149,271.534607 306.599976,268.655823 C304.139923,265.097351 303.125061,260.539764 301.559448,256.599274 C299.683105,259.907013 297.751434,263.889252 295.291962,267.513245 C291.575378,272.989624 287.194550,274.497192 281.521240,272.832062 C276.511414,271.361664 273.080566,266.708466 273.147858,260.550995 C273.192963,256.419586 274.270599,252.305618 274.410309,248.167770 C274.636414,241.472656 274.471191,234.764313 274.471191,227.159149 C277.451141,225.228409 282.504028,224.024460 285.956207,226.699463 C288.688965,228.817017 290.282654,233.746109 290.447327,237.511322 C290.675110,242.718918 288.857361,247.985474 288.384186,253.268753 C288.185181,255.490509 289.183716,257.819550 289.637878,260.099792 C291.997742,259.185242 295.664581,258.911743 296.483826,257.241516 C299.503510,251.085052 302.087921,244.600433 303.840393,237.975830 C305.089386,233.254349 304.742706,228.110764 305.137817,222.753204 C306.637115,222.753204 308.257477,222.753204 310.286194,222.793869 z" opacity="1"/><path fill="#100418" stroke="none" d="M365.382874,314.433075 C370.539490,310.000916 375.041534,305.142395 380.490875,301.853363 C387.791931,297.446655 392.487427,300.472351 392.282715,308.976410 C392.131134,315.273895 390.904785,321.539276 390.584290,327.840729 C390.276367,333.895020 390.517761,339.977264 390.517761,347.218048 C387.774841,348.963074 383.232178,350.172028 378.879669,347.820160 C374.575378,345.494354 374.229065,340.647064 374.418610,336.329437 C374.680573,330.361298 375.731689,324.431274 376.150330,318.464294 C376.273468,316.709442 375.398987,314.884644 374.981689,313.091888 C373.269745,313.906494 371.201996,314.349976 369.902863,315.595276 C360.700806,324.415833 357.910522,336.673981 361.897614,350.244598 C357.905823,352.823700 352.926422,353.964539 349.382568,351.396179 C346.744659,349.484436 345.058685,344.675690 344.997131,341.121674 C344.868317,333.684723 346.229706,326.233215 346.708008,318.770325 C346.992096,314.337677 346.760040,309.872009 346.760040,305.500977 C358.485687,303.998962 361.327393,306.263794 362.150360,318.081970 C363.398407,316.677246 364.274292,315.691406 365.382874,314.433075 z" opacity="1"/><path fill="#0F0419" stroke="none" d="M180.575729,317.731201 C174.562897,318.949066 168.886505,319.959290 163.320831,320.949799 C168.978088,327.355804 165.906555,335.446686 165.474106,343.125183 C164.878006,353.708923 162.433319,364.269897 166.059296,374.986053 C161.901123,377.655457 156.899277,378.759827 153.368393,376.240540 C150.740875,374.365875 148.978790,369.464142 149.050507,365.955963 C149.278168,354.820496 150.618057,343.711182 151.370789,332.581116 C151.625351,328.816956 151.411087,325.021088 151.411087,320.062744 C144.356567,321.788574 138.213531,323.291412 131.805878,324.858978 C128.127975,320.055908 129.274200,315.032379 135.732880,313.062836 C140.931595,311.477448 146.469238,310.836395 151.907333,310.239136 C162.136429,309.115662 172.402191,308.326111 183.118393,307.355530 C184.978241,310.977509 184.307266,314.471252 180.575729,317.731201 z" opacity="1"/><path fill="#120518" stroke="none" d="M289.278992,125.548409 C295.355804,128.383621 292.856445,134.181274 294.730499,138.954514 C296.280304,138.688995 298.001221,138.131546 299.702850,138.185211 C301.078247,138.228622 302.430359,139.008423 303.792786,139.461548 C303.150665,141.180389 302.991364,143.665848 301.756500,144.443588 C299.760010,145.701004 297.056305,145.835602 293.325348,146.779968 C292.908722,154.636658 291.941925,163.023468 292.195526,171.373199 C292.380096,177.450012 294.988739,178.499847 303.799133,178.056473 C302.135651,183.624695 296.886383,187.093170 290.056488,187.136993 C283.855988,187.176773 278.132477,183.528091 277.238953,177.445343 C276.410156,171.803116 277.055878,165.907501 277.393463,160.143448 C277.624847,156.191971 278.440460,152.274704 279.087189,147.687881 C276.147583,147.961929 273.611633,148.198349 271.076782,148.434433 C269.111450,143.067505 269.674103,142.433243 279.551544,139.360382 C279.153137,134.587418 278.742828,129.671722 278.259979,123.886887 C281.868195,124.394737 285.390259,124.890465 289.278992,125.548409 z" opacity="1"/><path fill="#100418" stroke="none" d="M256.191132,221.045410 C256.891846,224.525604 257.481201,227.617889 258.185883,231.315369 C260.831757,230.949112 263.521393,230.576797 266.177338,230.209152 C268.240265,235.279022 267.528381,237.280304 262.545959,237.849045 C258.174744,238.348007 256.760223,240.270416 256.620636,244.453171 C256.443665,249.756027 255.143753,255.039291 255.168839,260.327026 C255.212250,269.470825 258.491455,271.929169 267.197815,270.249969 C266.048676,275.806946 259.887695,279.972198 253.099396,279.781555 C246.412308,279.593689 240.448502,274.538574 240.168503,267.583374 C239.916489,261.323364 240.939774,255.008911 241.452286,248.722702 C241.677521,245.960007 242.031143,243.207764 242.375916,239.989655 C239.391541,240.401337 236.984863,240.733337 234.591492,241.063492 C232.865173,235.282181 233.945206,234.085083 243.069733,232.277481 C242.695389,227.372849 242.312439,222.355286 241.891602,216.841400 C246.986389,217.061737 252.193085,216.046371 256.191132,221.045410 z" opacity="1"/><path fill="#100418" stroke="none" d="M311.226196,155.207092 C311.823700,147.993652 312.366821,141.232147 312.948700,133.988464 C314.584045,133.988464 316.690308,133.808899 318.756165,134.021515 C325.446564,134.710007 327.358093,136.556961 327.194061,143.229584 C327.034821,149.707397 325.981323,156.162155 325.794403,162.640701 C325.642975,167.889740 326.194672,173.159088 326.483307,179.490051 C323.782166,181.732788 319.026062,182.313324 315.442749,180.422638 C312.847504,179.053268 310.755920,174.770050 310.396851,171.566849 C309.812988,166.358658 310.830322,160.970963 311.226196,155.207092 z" opacity="1"/><path fill="#120618" stroke="none" d="M322.171814,126.358315 C317.435974,127.177345 313.265991,126.023979 312.103241,121.759651 C311.397736,119.172119 312.707916,115.273727 314.443451,112.964523 C316.900146,109.695793 321.090576,109.862785 324.343414,112.002655 C326.130035,113.177994 327.813232,115.678032 328.069061,117.761734 C328.553040,121.704124 326.319183,124.663147 322.171814,126.358315 z" opacity="1"/><path fill="#F9F5F3" stroke="none" d="M370.779480,423.801575 C369.610321,425.312561 368.156372,426.536560 366.410034,427.490723 C367.576630,425.985504 369.035675,424.750061 370.779480,423.801575 z" opacity="1"/><path fill="#F9F4EF" stroke="none" d="M124.238953,83.251564 C125.039932,81.899742 126.137352,80.863136 127.565323,79.877686 C126.775711,81.141487 125.655548,82.354134 124.238953,83.251564 z" opacity="1"/><path fill="#F9F4EF" stroke="none" d="M121.499832,85.094292 C121.525360,84.681313 121.899567,84.236626 122.610252,83.847397 C122.580666,84.289429 122.214584,84.676010 121.499832,85.094292 z" opacity="1"/><path fill="#F9F5F3" stroke="none" d="M371.684631,423.121826 C371.888306,423.464172 371.751465,423.798828 371.339569,424.110291 C371.157715,423.762756 371.250916,423.438416 371.684631,423.121826 z" opacity="1"/><path fill="#F9F4EF" stroke="none" d="M123.297501,84.065971 C123.054321,83.613831 123.202202,83.283478 123.654617,82.938751 C123.868942,83.345512 123.778755,83.766640 123.297501,84.065971 z" opacity="1"/><path fill="#FAC801" stroke="none" d="M250.155670,163.119141 C248.011597,167.999588 246.442795,172.805222 243.787567,176.907639 C240.569321,181.879913 235.110596,181.097122 232.401672,175.792206 C229.023499,169.176712 230.786499,158.009735 236.461746,153.221573 C238.462189,151.533798 241.390305,150.410965 244.017960,150.111984 C249.560501,149.481323 252.297028,152.861862 251.304291,158.391815 C251.041656,159.854752 250.605820,161.286606 250.155670,163.119141 z" opacity="1"/><path fill="#FAC801" stroke="none" d="M305.996216,330.454895 C307.456268,323.772186 309.906036,318.294830 316.842896,316.511169 C323.550903,314.786407 327.927460,318.737122 326.023163,325.357635 C324.305664,331.328583 321.880524,337.176605 319.023407,342.693481 C318.078430,344.518188 314.654907,346.285400 312.660889,346.001007 C310.605438,345.707886 308.042999,343.203613 307.263031,341.090668 C306.105682,337.955353 306.322693,334.312683 305.996216,330.454895 z" opacity="1"/></svg>